<svg xmlns="http://www.w3.org/2000/svg" width="28" height="28" viewBox="0 0 28 28" fill="none">
<path d="M16.625 3.06252C15.7625 3.06022 14.9082 3.22884 14.1113 3.55865C13.3144 3.88845 12.5908 4.37291 11.9822 4.98402L3.94096 13.027C3.69428 13.2732 3.5555 13.6074 3.55518 13.9559C3.55485 14.3044 3.69299 14.6388 3.93921 14.8855C4.18543 15.1322 4.51956 15.271 4.8681 15.2713C5.21663 15.2716 5.55102 15.1335 5.79771 14.8873L13.8425 6.84077C14.5908 6.15277 15.5761 5.78056 16.5925 5.80191C17.6088 5.82325 18.5776 6.23651 19.2964 6.95533C20.0152 7.67415 20.4285 8.64293 20.4498 9.65928C20.4712 10.6756 20.099 11.6609 19.411 12.4093L10.1307 21.6895C9.8819 21.9214 9.55282 22.0476 9.21279 22.0416C8.87277 22.0356 8.54834 21.8978 8.30787 21.6574C8.0674 21.4169 7.92965 21.0925 7.92365 20.7524C7.91765 20.4124 8.04387 20.0833 8.27571 19.8345L17.556 10.5543C17.8026 10.3078 17.9413 9.97347 17.9415 9.62477C17.9417 9.27607 17.8033 8.94158 17.5568 8.6949C17.3104 8.44821 16.976 8.30954 16.6273 8.30937C16.2786 8.30921 15.9441 8.44757 15.6975 8.69402L6.41546 17.9778C5.72745 18.7261 5.35525 19.7114 5.37659 20.7278C5.39794 21.7441 5.81119 22.7129 6.53002 23.4317C7.24884 24.1505 8.21762 24.5638 9.23396 24.5851C10.2503 24.6065 11.2356 24.2343 11.984 23.5463L21.2642 14.266C21.8757 13.658 22.3606 12.9348 22.6907 12.1382C23.0209 11.3415 23.1897 10.4873 23.1875 9.62502C23.1856 7.88511 22.4936 6.21699 21.2633 4.98668C20.033 3.75638 18.3649 3.06438 16.625 3.06252Z" fill="white"/>
</svg>