<svg xmlns="http://www.w3.org/2000/svg" width="25" height="25" viewBox="0 0 25 25" fill="none">
  <path d="M6.86084 12.2466C6.86084 9.52062 6.86084 8.15762 7.70384 7.31062C8.54784 6.46362 9.90484 6.46362 12.6208 6.46362H15.5008C18.2158 6.46362 19.5728 6.46362 20.4168 7.31062C21.2608 8.15762 21.2608 9.52062 21.2608 12.2466V17.0666C21.2608 19.7926 21.2608 21.1556 20.4168 22.0026C19.5738 22.8496 18.2158 22.8496 15.5008 22.8496H12.6208C9.90484 22.8496 8.54784 22.8496 7.70384 22.0026C6.86084 21.1556 6.86084 19.7926 6.86084 17.0666V12.2466Z" fill="#3570E0"/>
  <path opacity="0.5" d="M4.43274 4.02161C3.26074 5.19261 3.26074 7.07861 3.26074 10.8496V12.8496C3.26074 16.6206 3.26074 18.5066 4.43274 19.6776C5.04974 20.2956 5.86574 20.5876 7.05274 20.7256C6.86074 19.8856 6.86074 18.7296 6.86074 17.0656V12.2466C6.86074 9.52061 6.86074 8.15761 7.70374 7.31061C8.54774 6.46361 9.90474 6.46361 12.6207 6.46361H15.5007C17.1527 6.46361 18.3007 6.46361 19.1387 6.65361C19.0007 5.46061 18.7087 4.64161 18.0887 4.02161C16.9177 2.84961 15.0317 2.84961 11.2607 2.84961C7.48974 2.84961 5.60374 2.84961 4.43274 4.02161Z" fill="#3570E0"/>
</svg>