<svg xmlns="http://www.w3.org/2000/svg" width="17" height="18" viewBox="0 0 17 18" fill="none">
  <path fill-rule="evenodd" clip-rule="evenodd" d="M12.976 10.5797C13.8593 9.44092 14.2755 8.00844 14.1401 6.57366C14.0047 5.13888 13.3278 3.80958 12.2471 2.85618C11.1663 1.90279 9.763 1.39692 8.32253 1.44149C6.88206 1.48607 5.51268 2.07773 4.49297 3.09613C3.47237 4.11522 2.87877 5.48513 2.83313 6.92669C2.78749 8.36826 3.29325 9.77297 4.24734 10.8546C5.20143 11.9362 6.53205 12.6133 7.96804 12.7479C9.40402 12.8826 10.8373 12.4646 11.9758 11.5791L12.0063 11.611L15.011 14.6165C15.0768 14.6823 15.155 14.7345 15.2409 14.7701C15.3269 14.8057 15.4191 14.824 15.5122 14.824C15.6052 14.824 15.6974 14.8057 15.7834 14.7701C15.8694 14.7345 15.9475 14.6823 16.0133 14.6165C16.0791 14.5506 16.1313 14.4725 16.1669 14.3865C16.2026 14.3005 16.2209 14.2084 16.2209 14.1153C16.2209 14.0222 16.2026 13.9301 16.1669 13.8441C16.1313 13.7581 16.0791 13.68 16.0133 13.6142L13.0078 10.6094C12.9975 10.5992 12.9869 10.5893 12.976 10.5797ZM11.5055 4.09842C11.9054 4.49188 12.2235 4.96063 12.4413 5.47764C12.6592 5.99464 12.7725 6.54966 12.7748 7.11069C12.7771 7.67171 12.6683 8.22764 12.4546 8.7464C12.241 9.26516 11.9268 9.73649 11.53 10.1332C11.1333 10.5299 10.662 10.8441 10.1432 11.0578C9.62449 11.2714 9.06856 11.3802 8.50753 11.378C7.94651 11.3757 7.39149 11.2623 6.87448 11.0445C6.35748 10.8266 5.88873 10.5086 5.49526 10.1086C4.70896 9.3094 4.27031 8.23185 4.27488 7.11069C4.27944 5.98952 4.72685 4.91558 5.51964 4.12279C6.31243 3.33 7.38637 2.88259 8.50753 2.87803C9.6287 2.87346 10.7063 3.31211 11.5055 4.09842Z" fill="white"/>
</svg>