<svg xmlns="http://www.w3.org/2000/svg" width="25" height="25" viewBox="0 0 25 25" fill="none">
  <path fill-rule="evenodd" clip-rule="evenodd" d="M14.7193 2.64443C14.3493 2.49243 13.8793 2.49243 12.9403 2.49243C12.0013 2.49243 11.5313 2.49243 11.1613 2.64443C10.6687 2.84664 10.2766 3.2362 10.0713 3.72743C9.97726 3.95043 9.94126 4.21143 9.92626 4.59043C9.91959 4.86504 9.84299 5.1334 9.7037 5.37015C9.56442 5.6069 9.36705 5.80421 9.13026 5.94343C8.889 6.07754 8.6178 6.14858 8.34178 6.14998C8.06576 6.15137 7.79386 6.08308 7.55126 5.95143C7.21326 5.77343 6.96826 5.67543 6.72626 5.64343C6.19681 5.57392 5.66133 5.71623 5.23626 6.03943C4.91826 6.28143 4.68326 6.68543 4.21426 7.49243C3.74426 8.29943 3.51026 8.70243 3.45726 9.09743C3.38726 9.62343 3.53126 10.1554 3.85726 10.5764C4.00526 10.7684 4.21426 10.9294 4.53726 11.1314C5.01426 11.4284 5.32026 11.9344 5.32026 12.4924C5.32026 13.0504 5.01426 13.5564 4.53826 13.8524C4.21426 14.0554 4.00526 14.2164 3.85626 14.4084C3.69534 14.6164 3.57723 14.8541 3.50874 15.108C3.44026 15.3619 3.42276 15.6268 3.45726 15.8874C3.51026 16.2814 3.74426 16.6854 4.21426 17.4924C4.68426 18.2994 4.91826 18.7024 5.23626 18.9454C5.66026 19.2684 6.19626 19.4104 6.72626 19.3414C6.96826 19.3094 7.21326 19.2114 7.55126 19.0334C7.79398 18.9016 8.06607 18.8332 8.34228 18.8346C8.6185 18.836 8.88988 18.9072 9.13126 19.0414C9.61726 19.3214 9.90526 19.8364 9.92626 20.3944C9.94126 20.7744 9.97726 21.0344 10.0713 21.2574C10.2753 21.7474 10.6673 22.1374 11.1613 22.3404C11.5313 22.4924 12.0013 22.4924 12.9403 22.4924C13.8793 22.4924 14.3493 22.4924 14.7193 22.3404C15.2118 22.1382 15.6039 21.7487 15.8093 21.2574C15.9033 21.0344 15.9393 20.7744 15.9543 20.3944C15.9743 19.8364 16.2633 19.3204 16.7503 19.0414C16.9915 18.9073 17.2627 18.8363 17.5387 18.8349C17.8147 18.8335 18.0867 18.9018 18.3293 19.0334C18.6673 19.2114 18.9123 19.3094 19.1543 19.3414C19.6843 19.4114 20.2203 19.2684 20.6443 18.9454C20.9623 18.7034 21.1973 18.2994 21.6663 17.4924C22.1363 16.6854 22.3703 16.2824 22.4233 15.8874C22.4576 15.6267 22.44 15.3618 22.3713 15.1079C22.3026 14.854 22.1843 14.6163 22.0233 14.4084C21.8753 14.2164 21.6663 14.0554 21.3433 13.8534C20.8663 13.5564 20.5603 13.0504 20.5603 12.4924C20.5603 11.9344 20.8663 11.4284 21.3423 11.1324C21.6663 10.9294 21.8753 10.7684 22.0243 10.5764C22.1852 10.3685 22.3033 10.1307 22.3718 9.87686C22.4403 9.623 22.4578 9.35809 22.4233 9.09743C22.3703 8.70343 22.1363 8.29943 21.6663 7.49243C21.1963 6.68543 20.9623 6.28243 20.6443 6.03943C20.2192 5.71623 19.6837 5.57392 19.1543 5.64343C18.9123 5.67543 18.6673 5.77343 18.3293 5.95143C18.0865 6.08326 17.8144 6.15165 17.5382 6.15025C17.262 6.14885 16.9906 6.07771 16.7493 5.94343C16.5127 5.80409 16.3155 5.60673 16.1764 5.36998C16.0373 5.13324 15.9608 4.86494 15.9543 4.59043C15.9393 4.21043 15.9033 3.95043 15.8093 3.72743C15.7076 3.48417 15.559 3.26331 15.372 3.07749C15.185 2.89166 14.9632 2.74451 14.7193 2.64443ZM12.9403 15.4924C14.6103 15.4924 15.9633 14.1494 15.9633 12.4924C15.9633 10.8354 14.6093 9.49243 12.9403 9.49243C11.2703 9.49243 9.91726 10.8354 9.91726 12.4924C9.91726 14.1494 11.2713 15.4924 12.9403 15.4924Z" fill="#803FEA"/>
</svg>