<svg xmlns="http://www.w3.org/2000/svg" width="26" height="26" viewBox="0 0 26 26" fill="none">
  <g clip-path="url(#clip0_24_267)">
    <path d="M25.7858 20.6821C25.7254 20.7914 25.6386 20.8822 25.534 20.9453C25.4295 21.0083 25.3109 21.0415 25.1902 21.0415H8.69021C8.56959 21.0414 8.45113 21.0081 8.34671 20.9449C8.2423 20.8818 8.15561 20.7911 8.09535 20.6818C8.03509 20.5726 8.00339 20.4487 8.00342 20.3226C8.00345 20.1965 8.03521 20.0726 8.09553 19.9634C9.40435 17.5978 11.4213 15.9015 13.7751 15.0974C12.6108 14.3728 11.7062 13.2687 11.2003 11.9545C10.6943 10.6404 10.6149 9.18896 10.9744 7.82312C11.3338 6.45727 12.1122 5.25254 13.1899 4.39393C14.2677 3.53532 15.5852 3.07031 16.9402 3.07031C18.2952 3.07031 19.6128 3.53532 20.6905 4.39393C21.7683 5.25254 22.5466 6.45727 22.906 7.82312C23.2655 9.18896 23.1861 10.6404 22.6802 11.9545C22.1742 13.2687 21.2696 14.3728 20.1053 15.0974C22.4591 15.9015 24.4761 17.5978 25.7849 19.9634C25.8454 20.0726 25.8773 20.1965 25.8774 20.3226C25.8776 20.4488 25.846 20.5728 25.7858 20.6821Z" fill="white"/>
    <path d="M22.8152 22.2915H22.8151H4.06563C4.01629 22.2914 3.96782 22.2784 3.92511 22.2537C3.88239 22.229 3.84693 22.1935 3.82228 22.1507C3.79762 22.108 3.78466 22.0595 3.78467 22.0102C3.78468 21.9608 3.79768 21.9123 3.82235 21.8696C5.2491 19.4032 7.44315 17.6409 9.99874 16.8058L11.045 16.4639L10.0992 15.9009C8.87021 15.1693 7.91536 14.0544 7.38128 12.7276C6.84721 11.4008 6.76344 9.93533 7.14285 8.55629C7.52226 7.17725 8.34386 5.96088 9.48148 5.09398C10.6191 4.22707 12.0098 3.75757 13.4401 3.75757C14.8704 3.75757 16.2611 4.22707 17.3988 5.09398C18.5364 5.96088 19.358 7.17725 19.7374 8.55629C20.1168 9.93533 20.033 11.4008 19.499 12.7276C18.9649 14.0544 18.01 15.1693 16.781 15.9009L15.8353 16.4639L16.8815 16.8058C19.4372 17.6409 21.6313 19.4034 23.0581 21.8699L23.0582 21.8701C23.0829 21.9129 23.096 21.9614 23.0961 22.0107C23.0961 22.06 23.0832 22.1084 23.0587 22.1511C23.034 22.1938 22.9986 22.2292 22.9559 22.2538C22.9131 22.2785 22.8646 22.2915 22.8152 22.2915Z" fill="white" stroke="#494B4E"/>
  </g>
  <defs>
    <clipPath id="clip0_24_267">
      <rect width="25" height="25" fill="white" transform="translate(0.939941 0.916504)"/>
    </clipPath>
  </defs>
</svg>